<svg width="25" height="21" viewBox="0 0 25 21" fill="none" xmlns="http://www.w3.org/2000/svg">
<path d="M24.5264 7.07358C24.7168 6.91167 25 7.06313 25 7.31906V18.0001C25 19.3842 23.9502 20.5072 22.6562 20.5072H2.34375C1.0498 20.5072 0 19.3842 0 18.0001V7.32429C0 7.06313 0.27832 6.91689 0.473633 7.0788C1.56738 7.98761 3.01758 9.14189 7.99805 13.0121C9.02832 13.8165 10.7666 15.5087 12.5 15.4983C14.2432 15.514 16.0156 13.7851 17.0068 13.0121C21.9873 9.14189 23.4326 7.98238 24.5264 7.07358ZM12.5 13.8217C13.6328 13.8426 15.2637 12.2966 16.084 11.6594C22.5635 6.62962 23.0566 6.19089 24.5508 4.93737C24.834 4.70233 25 4.33672 25 3.95022V2.95785C25 1.57375 23.9502 0.450806 22.6562 0.450806H2.34375C1.0498 0.450806 0 1.57375 0 2.95785V3.95022C0 4.33672 0.166016 4.69711 0.449219 4.93737C1.94336 6.18567 2.43652 6.62962 8.91602 11.6594C9.73633 12.2966 11.3672 13.8426 12.5 13.8217Z" fill="#00853B"/>
</svg>
